<?xml version="1.0" standalone="no"?>
<!DOCTYPE svg PUBLIC "-//W3C//DTD SVG 20010904//EN"
 "http://www.w3.org/TR/2001/REC-SVG-20010904/DTD/svg10.dtd">
<svg version="1.0" xmlns="http://www.w3.org/2000/svg"
 width="1014.000000pt" height="1014.000000pt" viewBox="0 0 1014.000000 1014.000000"
 preserveAspectRatio="xMidYMid meet">
<metadata>
Created by potrace 1.11, written by Peter Selinger 2001-2013
</metadata>
<g transform="translate(0.000000,1014.000000) scale(0.100000,-0.100000)"
fill="#000000" stroke="none">
<path d="M3360 9940 c-11 -11 -24 -20 -29 -20 -5 0 -11 -7 -15 -15 -3 -8 -12
-15 -19 -15 -8 0 -20 -13 -27 -30 -7 -16 -16 -27 -21 -24 -5 3 -9 1 -9 -5 0
-5 -16 -27 -35 -48 -19 -20 -42 -52 -52 -70 -10 -18 -21 -33 -25 -33 -5 0 -8
-7 -8 -15 0 -8 -5 -15 -11 -15 -5 0 -8 -4 -4 -9 3 -5 1 -12 -5 -16 -6 -4 -8
-11 -5 -16 4 -5 1 -9 -4 -9 -6 0 -11 -6 -11 -14 0 -8 -7 -22 -16 -30 -8 -9
-13 -16 -10 -16 3 0 -2 -16 -10 -35 -8 -19 -12 -35 -9 -35 3 0 -2 -11 -10 -24
-9 -13 -17 -37 -18 -55 -1 -17 -5 -31 -9 -31 -3 0 -5 -8 -3 -17 1 -10 -2 -24
-8 -31 -16 -20 -12 -282 4 -282 4 0 6 -8 4 -19 -2 -10 3 -30 10 -44 7 -14 11
-28 7 -31 -3 -3 0 -6 6 -6 7 0 12 -12 12 -26 0 -14 5 -34 11 -45 8 -16 5 -27
-19 -57 -98 -126 -206 -299 -245 -392 -30 -73 -66 -182 -72 -220 -3 -14 -6
-32 -8 -40 -27 -109 -36 -248 -39 -597 -3 -222 -6 -260 -22 -234 -3 5 -25 18
-48 30 -24 12 -56 29 -73 38 -39 21 -137 42 -180 37 -52 -5 -147 -58 -207
-116 -58 -55 -108 -127 -108 -153 0 -8 -5 -15 -12 -15 -6 0 -9 -3 -5 -6 3 -3
1 -18 -5 -33 -14 -37 -36 -201 -27 -207 4 -2 6 -17 4 -32 -1 -15 1 -32 6 -38
5 -6 11 -28 15 -50 3 -21 13 -55 21 -74 18 -40 18 -40 34 -100 7 -25 18 -52
25 -60 7 -8 14 -21 16 -29 2 -8 16 -26 32 -40 15 -14 37 -34 47 -43 10 -10 21
-18 24 -18 3 0 9 0 14 0 6 0 8 -9 6 -20 -2 -12 4 -24 16 -31 26 -14 139 -128
139 -140 0 -5 4 -9 8 -9 5 0 18 -9 30 -20 12 -11 25 -21 29 -23 5 -1 7 -6 5
-10 -1 -5 2 -6 7 -3 5 4 16 -1 24 -9 9 -8 20 -15 26 -15 6 0 11 -4 11 -10 0
-5 6 -7 13 -4 8 3 20 -2 27 -11 7 -8 21 -15 31 -15 10 0 20 -4 23 -9 3 -5 21
-12 40 -15 36 -7 42 -17 50 -71 2 -17 9 -52 16 -80 6 -27 11 -56 12 -62 1 -7
5 -13 10 -13 5 0 7 -4 3 -9 -3 -5 -1 -20 4 -33 5 -13 19 -56 31 -95 12 -40 28
-79 35 -87 8 -7 12 -16 9 -19 -3 -3 4 -22 15 -43 12 -21 21 -42 21 -47 0 -4
12 -25 26 -47 14 -21 27 -50 28 -64 0 -13 4 -22 7 -21 5 4 41 -86 41 -102 0
-4 6 -16 15 -25 8 -9 12 -22 8 -27 -3 -6 -1 -11 5 -11 6 0 15 -12 21 -27 5
-16 21 -49 35 -75 14 -26 25 -50 25 -53 0 -2 8 -24 19 -47 10 -23 16 -46 14
-50 -3 -4 0 -8 5 -8 6 0 11 -7 11 -17 0 -9 11 -31 25 -48 13 -18 21 -35 18
-39 -4 -3 -2 -6 3 -6 6 0 18 -25 28 -55 11 -30 22 -52 27 -50 7 5 49 -73 49
-92 0 -6 9 -22 20 -36 11 -14 34 -51 50 -82 17 -32 41 -71 55 -87 14 -16 25
-35 25 -43 0 -7 7 -16 16 -19 9 -4 14 -9 11 -12 -5 -5 34 -45 148 -149 22 -20
52 -43 68 -51 15 -8 27 -19 27 -25 0 -6 4 -8 9 -5 11 7 43 -28 34 -38 -4 -4
-1 -4 8 -1 9 3 25 -5 39 -20 13 -14 27 -25 32 -25 5 0 18 -9 30 -20 12 -11 29
-20 39 -20 9 0 19 -9 22 -21 4 -13 10 -18 18 -13 7 4 18 -1 26 -11 7 -11 13
-15 13 -10 0 4 8 1 18 -7 9 -9 27 -19 40 -22 12 -4 22 -11 22 -16 0 -5 6 -7
13 -4 7 2 22 -4 34 -15 11 -11 23 -17 27 -14 3 3 8 -2 12 -11 3 -9 10 -14 14
-11 4 2 19 -5 32 -18 14 -12 31 -23 39 -25 8 -2 17 -9 21 -15 4 -7 8 -8 8 -3
0 5 8 2 18 -6 9 -9 27 -19 40 -22 12 -4 22 -12 22 -18 0 -6 3 -9 6 -5 4 3 21
-1 38 -10 17 -9 38 -18 46 -19 35 -7 107 -31 130 -44 14 -8 28 -13 33 -12 4 1
7 -3 7 -8 0 -5 3 -9 8 -7 4 1 26 -7 50 -17 41 -19 42 -20 43 -70 2 -107 1
-164 -6 -261 -4 -55 -9 -127 -10 -160 -2 -33 -7 -100 -10 -150 -3 -49 -7 -111
-8 -137 -1 -26 -5 -49 -7 -52 -3 -3 -33 -7 -67 -10 -34 -3 -76 -12 -93 -21
-35 -18 -70 -50 -70 -64 0 -5 -4 -11 -10 -13 -15 -5 -19 -77 -4 -89 8 -6 11
-15 8 -21 -3 -5 -2 -14 3 -21 10 -13 9 -322 -1 -377 -3 -19 -8 -55 -10 -80 -2
-25 -7 -56 -11 -70 -3 -14 -8 -38 -10 -55 -6 -51 -14 -99 -21 -130 -4 -16 -6
-39 -6 -50 1 -20 -47 -106 -75 -133 -8 -8 -33 -40 -55 -71 -70 -95 -174 -201
-307 -311 -81 -67 -132 -111 -168 -147 -19 -18 -45 -40 -58 -49 -14 -9 -25
-23 -25 -30 0 -8 -4 -14 -10 -14 -5 0 -20 -11 -34 -25 -14 -14 -29 -25 -35
-25 -5 0 -13 -9 -16 -20 -3 -11 -12 -20 -20 -20 -8 0 -17 -9 -20 -20 -3 -11
-11 -20 -17 -20 -6 0 -32 -22 -59 -50 -27 -27 -53 -50 -58 -50 -5 0 -23 -13
-40 -29 -17 -16 -36 -31 -41 -33 -30 -11 -230 -198 -230 -216 0 -7 -8 -12 -17
-12 -9 0 -13 -3 -10 -6 3 -4 -7 -23 -23 -42 -16 -19 -27 -39 -24 -44 4 -5 -3
-12 -15 -15 -12 -3 -24 -16 -27 -29 -3 -13 -10 -22 -14 -19 -5 3 -11 -4 -15
-15 -3 -11 -11 -20 -16 -20 -5 0 -9 -8 -9 -17 0 -10 -12 -29 -25 -42 -14 -12
-23 -26 -20 -31 4 -7 -4 -19 -45 -67 -5 -7 -10 -17 -10 -22 0 -5 -11 -23 -25
-39 -13 -16 -21 -32 -17 -36 4 -4 0 -13 -9 -19 -9 -7 -19 -22 -23 -35 l-7 -22
2403 0 c1637 1 2397 4 2386 11 -10 5 -18 16 -18 24 0 7 -11 27 -25 43 -13 16
-22 32 -18 36 3 3 1 6 -5 6 -7 0 -11 3 -11 7 4 25 -3 43 -16 43 -14 0 -19 11
-16 37 1 6 -4 15 -10 19 -8 4 -9 3 -5 -4 4 -7 5 -12 2 -12 -4 0 -13 18 -22 40
-9 22 -20 38 -24 35 -7 -4 -24 24 -20 33 1 2 -7 10 -17 18 -10 7 -14 14 -10
14 4 0 -6 13 -23 30 -16 16 -30 32 -30 35 0 3 -9 15 -20 27 -11 12 -20 18 -20
13 0 -5 -7 1 -16 13 -8 12 -22 22 -31 22 -9 0 -13 3 -10 6 9 10 -119 134 -137
134 -9 0 -16 6 -16 13 0 17 -289 327 -304 327 -5 0 -21 14 -36 30 -15 17 -33
30 -39 30 -6 0 -11 5 -11 10 0 6 -7 10 -15 10 -14 0 -19 12 -16 33 0 4 -6 7
-14 7 -8 0 -15 5 -15 10 0 6 -7 10 -16 10 -8 0 -13 4 -10 8 3 5 -13 19 -34 31
-22 12 -40 26 -40 32 0 5 -6 9 -14 9 -8 0 -16 3 -18 8 -5 13 -91 72 -105 72
-7 0 -13 5 -13 10 0 6 -5 10 -11 10 -7 0 -34 16 -60 35 -27 19 -53 35 -58 35
-4 0 -17 11 -27 25 -10 14 -23 25 -29 25 -5 0 -26 22 -45 48 -19 26 -39 50
-45 54 -5 4 -6 8 -2 8 4 0 -5 12 -20 28 -15 15 -39 48 -52 72 -14 25 -27 47
-30 50 -19 16 -51 72 -51 89 0 11 -6 21 -12 23 -7 3 -14 18 -14 34 -1 16 -5
46 -8 67 -4 20 -3 37 1 37 12 0 6 105 -7 129 -5 11 -10 33 -10 50 0 17 -5 31
-11 31 -6 0 -9 9 -6 20 3 11 1 18 -3 15 -5 -3 -9 16 -8 42 0 27 -1 50 -2 53
-6 14 -12 121 -13 252 -1 82 -6 148 -11 148 -4 0 -6 7 -2 15 3 8 1 15 -5 15
-6 0 -8 4 -5 8 7 11 -58 74 -67 66 -4 -4 -7 -2 -7 5 0 7 -4 9 -10 6 -5 -3 -10
-2 -10 3 0 5 -12 8 -27 6 -16 -1 -28 -3 -28 -4 0 -1 -7 -3 -16 -5 -31 -6 -49
66 -51 202 0 18 -3 33 -7 33 -4 0 -8 28 -8 63 0 34 -3 85 -7 112 -3 28 -8 82
-11 120 -3 39 -8 77 -11 86 -4 15 -14 134 -17 218 -2 40 0 44 23 48 14 2 48
13 77 24 29 11 56 18 61 15 6 -3 12 0 15 8 3 7 17 16 32 20 15 4 44 18 66 32
21 13 39 21 39 17 0 -5 4 -3 8 2 12 17 73 45 83 39 5 -3 8 0 7 6 -2 7 11 19
27 28 36 20 98 63 105 73 3 4 11 9 19 11 14 3 47 28 85 63 11 11 24 19 28 18
5 -2 8 2 8 7 0 6 10 14 23 19 12 5 26 10 31 12 6 2 25 19 43 38 18 19 33 31
33 28 0 -3 28 21 62 54 35 32 71 62 81 65 9 3 15 10 12 15 -4 5 -2 9 4 9 11 0
231 214 231 224 0 3 20 27 45 53 25 25 45 53 45 60 0 8 7 16 15 19 8 4 15 12
15 20 0 8 4 14 8 14 4 0 14 16 21 35 7 19 17 35 22 35 5 0 8 4 6 8 -2 9 34 84
45 92 3 3 10 19 14 35 4 17 13 39 19 50 7 11 18 38 25 60 7 22 24 65 38 95 14
30 26 62 28 70 12 63 27 110 36 110 6 0 9 3 5 6 -3 4 0 21 7 38 7 17 13 34 14
39 3 36 19 78 41 112 14 22 30 49 36 60 6 11 26 46 44 78 17 31 29 57 25 57
-4 0 -1 6 5 14 9 11 82 212 81 224 0 1 0 3 1 5 12 39 49 224 49 246 0 13 3 22
6 18 4 -3 20 1 36 9 16 8 37 12 47 9 21 -6 71 13 87 34 6 8 18 12 25 9 8 -3
23 0 34 8 10 8 27 14 37 14 10 0 18 4 18 8 0 5 18 17 40 27 22 10 40 21 40 24
0 3 12 12 28 18 30 14 192 161 192 175 0 5 11 20 25 34 14 14 25 31 25 39 0 7
9 16 19 20 11 3 18 13 16 23 -1 9 5 25 14 34 9 9 21 23 26 30 13 15 43 79 45
93 1 6 8 17 15 25 7 8 14 18 14 23 1 4 1 8 2 10 4 12 10 44 11 55 1 6 4 12 7
12 4 0 8 21 9 48 2 26 4 61 6 77 1 17 0 34 -3 40 -3 5 -7 27 -9 48 -6 65 -39
126 -102 188 -33 33 -65 59 -70 59 -6 0 -10 3 -10 8 0 22 -86 43 -190 45 -55
1 -146 -16 -170 -32 -14 -9 -43 -26 -64 -36 -21 -11 -55 -35 -74 -52 -19 -18
-39 -33 -43 -33 -5 0 -9 -4 -9 -8 0 -4 -9 -8 -19 -9 -11 -1 -18 3 -16 10 6 17
18 95 33 213 5 33 7 215 5 405 -3 306 -6 353 -24 424 -11 44 -24 85 -30 91 -5
6 -7 13 -4 16 20 20 -164 412 -205 436 -14 8 -42 35 -62 61 -21 25 -73 84
-117 131 -63 68 -77 89 -71 105 4 11 6 28 5 38 -2 9 0 17 4 17 8 0 12 50 12
155 0 106 -8 164 -27 193 -9 13 -13 26 -10 29 3 3 -1 18 -10 34 -8 16 -14 32
-14 36 1 14 -33 83 -39 79 -3 -2 -7 6 -7 19 -2 22 -43 84 -103 153 l-28 32
-12 -62 c-36 -186 -95 -376 -130 -420 l-18 -21 -59 36 c-76 46 -366 163 -454
182 -9 2 -105 19 -115 20 -5 1 -17 5 -25 8 -41 17 -235 35 -340 32 -259 -9
-462 -42 -602 -97 l-77 -30 -58 30 c-76 39 -164 75 -169 69 -3 -3 16 -17 41
-32 26 -15 45 -28 43 -30 -2 -2 -32 3 -68 12 -135 32 -530 -5 -656 -62 -131
-59 -429 -210 -481 -244 l-62 -40 -40 67 c-101 168 -138 341 -101 476 9 33 22
71 29 84 6 12 9 28 5 34 -4 6 -3 8 3 5 6 -4 13 6 15 23 5 35 4 36 -22 10z"/>
</g>
</svg>
